<?xml version="1.0" encoding="UTF-8"?><svg id="Capa_1" xmlns="http://www.w3.org/2000/svg" viewBox="0 0 891.46 280.83"><defs><style>.cls-1{fill:#fff;}</style></defs><path class="cls-1" d="M43.32,92.98c-13.64,0-24.26-3.68-31.88-11.05C3.81,74.56,0,64.23,0,50.94V2.03h29.98v48.02c0,6.78,1.23,11.58,3.68,14.42,2.46,2.84,5.76,4.26,9.91,4.26s7.56-1.42,9.97-4.26c2.41-2.84,3.62-7.64,3.62-14.42V2.03h29.47v48.9c0,13.3-3.81,23.63-11.43,30.99-7.62,7.37-18.25,11.05-31.88,11.05Z"/><path class="cls-1" d="M133.5,92.98c-7.45,0-14.65-.85-21.59-2.54-6.94-1.69-12.66-3.89-17.15-6.6l9.65-21.85c4.23,2.46,8.96,4.43,14.16,5.91,5.21,1.48,10.27,2.22,15.18,2.22,2.88,0,5.14-.19,6.8-.57s2.86-.93,3.62-1.65c.76-.72,1.14-1.59,1.14-2.6,0-1.61-.89-2.88-2.67-3.81-1.78-.93-4.13-1.71-7.05-2.35-2.92-.63-6.12-1.31-9.59-2.03-3.47-.72-6.97-1.67-10.48-2.86-3.52-1.18-6.73-2.75-9.65-4.7-2.92-1.95-5.27-4.51-7.05-7.69s-2.67-7.13-2.67-11.88c0-5.5,1.54-10.52,4.64-15.05,3.09-4.53,7.71-8.15,13.85-10.86,6.14-2.71,13.78-4.06,22.93-4.06,6.01,0,11.94.64,17.78,1.91,5.84,1.27,11.09,3.22,15.75,5.84l-9.02,21.72c-4.4-2.2-8.66-3.85-12.77-4.95-4.11-1.1-8.11-1.65-12-1.65-2.88,0-5.17.25-6.86.76-1.7.51-2.9,1.19-3.62,2.03-.72.85-1.08,1.78-1.08,2.79,0,1.52.89,2.73,2.67,3.62,1.78.89,4.13,1.63,7.05,2.22,2.92.59,6.14,1.23,9.65,1.91,3.51.68,7.01,1.61,10.48,2.79,3.47,1.19,6.67,2.75,9.59,4.7,2.92,1.95,5.27,4.49,7.05,7.62,1.78,3.13,2.67,7.03,2.67,11.69,0,5.42-1.55,10.4-4.64,14.93-3.09,4.53-7.69,8.17-13.78,10.92-6.1,2.75-13.76,4.13-22.99,4.13Z"/><path class="cls-1" d="M183.81,90.95V2.03h72.28v22.61h-42.81v43.7h44.46v22.61h-73.93ZM211.24,56.65v-21.59h39.63v21.59h-39.63Z"/><path class="cls-1" d="M315.28,92.98c-7.11,0-13.7-1.12-19.75-3.37-6.06-2.24-11.31-5.44-15.75-9.59-4.45-4.15-7.9-9.06-10.35-14.73-2.46-5.67-3.68-11.94-3.68-18.8s1.23-13.13,3.68-18.8c2.46-5.67,5.91-10.59,10.35-14.74,4.45-4.15,9.7-7.35,15.75-9.59,6.05-2.24,12.64-3.37,19.75-3.37,8.72,0,16.45,1.52,23.18,4.57,6.73,3.05,12.3,7.45,16.7,13.21l-18.93,16.89c-2.63-3.3-5.53-5.86-8.7-7.69-3.18-1.82-6.75-2.73-10.73-2.73-3.13,0-5.97.51-8.51,1.52-2.54,1.02-4.72,2.5-6.54,4.45-1.82,1.95-3.24,4.3-4.26,7.05-1.02,2.75-1.52,5.82-1.52,9.21s.51,6.46,1.52,9.21c1.02,2.75,2.43,5.1,4.26,7.05,1.82,1.95,4,3.43,6.54,4.45,2.54,1.02,5.38,1.52,8.51,1.52,3.98,0,7.56-.91,10.73-2.73,3.18-1.82,6.08-4.38,8.7-7.68l18.93,16.89c-4.4,5.67-9.97,10.06-16.7,13.15-6.73,3.09-14.46,4.64-23.18,4.64Z"/><path class="cls-1" d="M351.99,90.95L390.86,2.03h29.47l38.87,88.92h-30.99l-28.71-74.69h11.69l-28.71,74.69h-30.49ZM375.11,75.45l7.62-21.59h40.9l7.62,21.59h-56.15Z"/><path class="cls-1" d="M464.02,90.95V2.03h42.81c8.3,0,15.48,1.36,21.53,4.06,6.05,2.71,10.73,6.59,14.04,11.62,3.3,5.04,4.95,10.99,4.95,17.85s-1.65,12.79-4.95,17.78c-3.3,5-7.98,8.87-14.04,11.62-6.06,2.75-13.23,4.13-21.53,4.13h-26.17l13.34-12.83v34.68h-29.98ZM494,59.57l-13.34-13.59h24.26c4.15,0,7.22-.93,9.21-2.79,1.99-1.86,2.99-4.4,2.99-7.62s-1-5.76-2.99-7.62c-1.99-1.86-5.06-2.79-9.21-2.79h-24.26l13.34-13.59v48.02Z"/><path class="cls-1" d="M642.49,92.98c-7.11,0-13.7-1.12-19.75-3.37-6.06-2.24-11.31-5.44-15.75-9.59-4.45-4.15-7.9-9.06-10.35-14.73-2.46-5.67-3.68-11.94-3.68-18.8s1.23-13.13,3.68-18.8c2.46-5.67,5.91-10.59,10.35-14.74,4.45-4.15,9.7-7.35,15.75-9.59,6.05-2.24,12.64-3.37,19.75-3.37,8.72,0,16.45,1.52,23.18,4.57,6.73,3.05,12.3,7.45,16.7,13.21l-18.93,16.89c-2.63-3.3-5.53-5.86-8.7-7.69-3.18-1.82-6.75-2.73-10.73-2.73-3.13,0-5.97.51-8.51,1.52-2.54,1.02-4.72,2.5-6.54,4.45-1.82,1.95-3.24,4.3-4.25,7.05-1.02,2.75-1.52,5.82-1.52,9.21s.51,6.46,1.52,9.21c1.02,2.75,2.43,5.1,4.25,7.05,1.82,1.95,4,3.43,6.54,4.45,2.54,1.02,5.38,1.52,8.51,1.52,3.98,0,7.56-.91,10.73-2.73,3.18-1.82,6.08-4.38,8.7-7.68l18.93,16.89c-4.4,5.67-9.97,10.06-16.7,13.15-6.73,3.09-14.46,4.64-23.18,4.64Z"/><path class="cls-1" d="M690.13,90.95V2.03h41.54c13.63,0,24.01,3.01,31.12,9.02,7.11,6.01,10.67,14.19,10.67,24.52,0,6.86-1.65,12.77-4.95,17.72s-7.98,8.75-14.04,11.37c-6.06,2.63-13.23,3.94-21.53,3.94h-26.17l13.34-12.32v34.68h-29.98ZM720.11,59.57l-13.34-13.59h24.26c4.15,0,7.22-.93,9.21-2.79,1.99-1.86,2.99-4.4,2.99-7.62s-1-5.76-2.99-7.62c-1.99-1.86-5.06-2.79-9.21-2.79h-24.26l13.34-13.59v48.02ZM743.35,90.95l-21.85-32.39h31.76l22.1,32.39h-32.01Z"/><path class="cls-1" d="M784.76,90.95V2.03h24.64l35.57,58.05h-12.96l34.55-58.05h24.64l.25,88.92h-27.31l-.25-47.76h4.32l-23.63,39.76h-13.21l-24.64-39.76h5.33v47.76h-27.31Z"/><path class="cls-1" d="M876.03,280.83s-161.56-19.08-434.19-19.08S7.66,280.83,7.66,280.83c0,0,161.56-25.44,434.19-25.44s434.19,25.44,434.19,25.44Z"/><path class="cls-1" d="M59.62,175.49c6.55-7.71,14.98-25.59,14.98-36.94,0-5.82-2.18-9.89-8.14-9.89-34.32,0-59.92,41.16-59.92,71.55,0,15.13,5.96,29.23,23.41,29.23,18.33,0,40.28-21.96,45.52-26.9.14-.15.87.58.58.87-5.82,5.82-27.2,29.09-47.56,29.09S0,219.7,0,202.83c0-33.74,28.65-76.64,66.75-76.64,9.89,0,13.38,4.51,13.38,10.76,0,9.74-8.14,23.56-14.69,32.28l13.52-14.4c1.75-1.89,4.51-5.38,4.8-6.4.87,1.31,2.47,3.78,1.02,5.09-3.05,2.62-14.11,12.22-24.29,22.83-.44.14-.73-.29-.87-.87Z"/><path class="cls-1" d="M110.1,229c-.29-3.35-.58-6.69-.58-9.74,0-5.53.14-12.8,2.91-18.33-4.65,3.35-9.74,4.94-13.67,4.22-3.2,9.89-10.62,21.38-19.34,21.38-5.82,0-7.56-5.82-7.56-10.33,0-12.94,11.64-27.34,23.41-28.21.14,0,.58.73,0,.87-11.2,2.76-18.32,16-18.32,26.76,0,3.2,1.16,6.25,4.07,6.25,7.13,0,12.94-9.45,15.71-17.45-2.33-1.16-3.78-3.49-3.78-7.42,0-3.2,1.31-6.4,4.22-6.4s3.49,3.2,3.49,4.94c0,2.04-.44,4.51-1.16,7.13,3.78,1.45,9.74-.14,15.27-5.23,1.31-1.45,2.91-2.62,4.94-3.35.29,0,.44,1.16.15,1.45-2.33,2.62-3.64,4.36-4.36,9.31-.58,3.35-1.16,8.58-1.45,13.82,5.24-12.22,14.4-27.63,22.83-27.63,2.18,0,3.34,1.45,3.34,3.93,0,7.13-6.98,21.23-6.25,23.12.58,1.75,13.53-9.45,19.78-17.01.29-.29.87.44.73.73-4.36,6.54-21.52,23.56-25.16,23.56-.73,0-.87-.58-.87-1.45,0-4.94,7.71-21.67,7.71-27.63,0-.58-.14-2.03-1.6-2.03-6.11,0-15.85,17.16-20.8,27.63-1.45,3.2-2.47,5.82-2.91,7.27-.14,0-.58,0-.73-.14ZM97.73,193.23c-1.16,0-1.75,1.45-1.75,3.49,0,2.18.58,3.78,1.75,4.8.58-2.33,1.02-4.51,1.02-5.96s-.29-2.33-1.02-2.33Z"/><path class="cls-1" d="M149.08,215.91c0-12.51,11.34-26.47,22.83-27.34.15,0,.58.73,0,.87-10.91,2.62-17.89,15.42-17.89,25.89,0,3.2,1.02,6.11,3.93,6.11,6.69,0,12.22-8.44,15.13-16.14-2.33-2.18-3.49-5.67-3.49-8.58,0-3.05,1.31-5.67,4.22-5.67,2.62,0,2.76,3.2,2.76,4.8,0,2.18-.44,5.09-1.31,8,1.16,1.16,2.76,1.89,4.8,1.89,2.47,0,5.53-1.02,9.45-3.78.29-.29.87.44.73.73-4.36,3.64-8,5.09-11.05,5.09-1.89,0-3.49-.44-4.8-1.31-3.2,9.31-10.03,19.49-18.03,19.49-5.67,0-7.27-5.67-7.27-10.03ZM174.24,193.66c-1.02,0-1.6,1.45-1.6,3.34,0,1.75.44,3.64,1.45,5.38.73-2.62,1.16-4.94,1.16-6.54,0-1.31-.29-2.18-1.02-2.18Z"/><path class="cls-1" d="M207.11,193.23c0-2.18-1.31-4.22-3.78-4.22-5.82,0-15.12,16.14-15.12,25.16,0,3.49.87,7.42,4.22,7.42,10.03,0,26.18-15.12,29.67-20.07.14-.29,1.02.29.73.73-3.49,5.53-20.65,23.27-32.14,23.27-5.82,0-7.13-5.09-7.13-9.6,0-9.45,9.6-28.94,20.94-28.94,4.36,0,6.25,1.75,6.25,4.07,0,1.75-1.6,4.94-3.2,6.83-.44.58-2.04-.15-1.75-.58.87-1.45,1.31-3.05,1.31-4.07Z"/><path class="cls-1" d="M226.3,190.03c1.02,1.31,3.49,2.47,3.49,4.22,0,.44-.15.87-.58,1.45-4.22,5.67-7.56,18.18-7.56,22.69,0,1.02.14,1.6.87,1.6,5.38,0,19.34-14.11,23.12-18.91.14-.29,1.02.29.73.73-3.34,5.23-20.8,23.85-27.63,23.85-1.6,0-1.6-1.45-1.6-2.33,0-3.05,1.16-9.02,3.93-17.45,1.75-5.09,4.94-14.54,5.24-15.85ZM233.87,175.05c1.45,0,2.33,1.02,2.33,2.47,0,1.6-1.75,4.07-3.93,4.07-1.45,0-2.18-1.45-2.18-2.91,0-1.89,1.74-3.64,3.78-3.64Z"/><path class="cls-1" d="M263.68,227.99c-.73-2.91-1.16-5.67-.15-10.47,1.6-7.56,6.25-18.61,6.25-23.12,0-.58-.14-1.89-1.6-1.89-7.56,0-20.5,26.18-24.28,36.65-.15,0-.58,0-.73-.14-.29-3.35-.58-6.69-.58-9.74,0-8.58.44-21.52,10.18-25.16.29,0,.44,1.16.15,1.45-2.33,2.62-3.64,4.36-4.36,9.31-.58,3.35-1.16,8.44-1.45,13.67,5.38-12.51,14.98-29.23,23.41-29.23,2.18,0,3.2,1.45,3.2,3.93,0,7.42-7.56,22.98-6.83,24.87q.14.15.29.15c5.23-12.22,14.69-27.2,22.98-27.2,2.18,0,3.34,1.45,3.34,3.93,0,7.13-6.98,21.23-6.25,23.12.58,1.75,13.67-9.45,19.78-17.01.29-.29.87.44.73.73-4.07,6.25-21.52,23.56-25.16,23.56-.73,0-.87-.58-.87-1.45,0-4.94,7.71-21.67,7.71-27.63,0-.58-.15-2.03-1.6-2.03-8,0-21.52,27.63-23.41,33.88-.15.15-.73,0-.73-.14Z"/><path class="cls-1" d="M310.08,190.03c1.02,1.31,3.49,2.47,3.49,4.22,0,.44-.15.87-.58,1.45-4.22,5.67-7.56,18.18-7.56,22.69,0,1.02.14,1.6.87,1.6,5.38,0,19.34-14.11,23.12-18.91.14-.29,1.02.29.73.73-3.34,5.23-20.8,23.85-27.63,23.85-1.6,0-1.6-1.45-1.6-2.33,0-3.05,1.16-9.02,3.93-17.45,1.75-5.09,4.94-14.54,5.24-15.85ZM317.64,175.05c1.45,0,2.33,1.02,2.33,2.47,0,1.6-1.75,4.07-3.93,4.07-1.45,0-2.18-1.45-2.18-2.91,0-1.89,1.74-3.64,3.78-3.64Z"/><path class="cls-1" d="M362.58,201.81c-3.49,5.53-20.8,24.29-32.28,24.29-5.82,0-7.13-5.09-7.13-9.6,0-10.33,10.03-28.8,20.94-28.8,2.62,0,6.4,1.16,6.4,3.49,0,3.93-10.32,9.45-20.36,13.53-1.45,3.49-2.33,7.13-2.33,10.03,0,3.49.87,7.42,4.22,7.42,10.03,0,26.32-16.14,29.81-21.09.14-.29,1.02.29.73.73ZM342.95,189.59c-3.64,0-8.58,6.25-11.78,13.09,9.16-3.78,14.54-7.71,14.54-10.61,0-1.45-1.6-2.47-2.76-2.47Z"/><path class="cls-1" d="M358.95,229c-.29-3.35-.58-6.69-.58-9.74,0-8.58.58-21.67,10.18-25.16.29,0,.44,1.16.15,1.45-2.33,2.62-3.64,4.36-4.36,9.31-.58,3.35-1.16,8.58-1.45,13.82,5.23-12.22,14.4-27.63,22.83-27.63,2.18,0,3.35,1.45,3.35,3.93,0,7.13-6.98,21.23-6.25,23.12.58,1.75,13.53-9.45,19.78-17.01.29-.29.87.44.73.73-4.36,6.54-21.52,23.56-25.16,23.56-.73,0-.87-.58-.87-1.45,0-4.94,7.71-21.67,7.71-27.63,0-.58-.14-2.03-1.6-2.03-8,0-21.81,28.65-23.7,34.9-.15,0-.58,0-.73-.14Z"/><path class="cls-1" d="M411.6,183.92c-5.09,12.22-10.76,29.23-10.76,34.47,0,1.02.29,1.6,1.02,1.6,5.38,0,20.07-14.11,23.85-18.91.14-.29,1.02.29.73.73-3.34,5.23-21.38,23.85-28.36,23.85-1.6,0-1.6-1.45-1.6-2.33,0-3.05,1.16-9.02,3.93-17.45l8-21.81c-4.8.15-9.45.15-14.11-.14,1.45-2.18,1.02-4.07,2.33-4.07,4.51.87,8.43,1.46,12.8,1.75l6.25-17.01c.44.58.58,3.05,1.6,3.78.44.44,1.75,1.6.44,3.35-1.31,1.75-3.05,5.38-5.09,10.03,4.36.14,9.16,0,15.42-.44.44,0,.58.87.14.87-5.67.87-11.2,1.45-16.58,1.75Z"/><path class="cls-1" d="M421.05,215.91c0-12.51,11.34-26.47,22.83-27.34.15,0,.58.73,0,.87-10.91,2.62-17.89,15.42-17.89,25.89,0,3.2,1.02,6.11,3.93,6.11,6.69,0,12.22-8.44,15.12-16.14-2.33-2.18-3.49-5.67-3.49-8.58,0-3.05,1.31-5.67,4.22-5.67,2.62,0,2.76,3.2,2.76,4.8,0,2.18-.44,5.09-1.31,8,1.16,1.16,2.76,1.89,4.8,1.89,2.47,0,5.53-1.02,9.45-3.78.29-.29.87.44.73.73-4.36,3.64-8,5.09-11.05,5.09-1.89,0-3.49-.44-4.8-1.31-3.2,9.31-10.03,19.49-18.03,19.49-5.67,0-7.27-5.67-7.27-10.03ZM446.21,193.66c-1.02,0-1.6,1.45-1.6,3.34,0,1.75.44,3.64,1.45,5.38.73-2.62,1.16-4.94,1.16-6.54,0-1.31-.29-2.18-1.02-2.18Z"/><path class="cls-1" d="M507.59,189.59c-11.05,0-24.14,17.6-24.58,29.38,0,1.75.44,2.47,1.45,2.47,5.23,0,24-25.31,25.59-27.05.44,1.31,2.18,1.6,2.18,2.62,0,.29-.14.73-.58,1.16-4.94,5.23-9.89,17.31-9.89,20.5,0,.73.29.87.73.87,5.38,0,19.05-13.67,22.83-18.47.14-.29,1.02.29.73.73-3.35,5.23-20.51,23.41-27.34,23.41-1.31,0-1.45-.87-1.45-1.6,0-2.91,1.75-9.6,6.55-18.18,0-.14-.44-.29-.58-.14-3.64,4.94-14.4,20.21-20.8,20.21-3.2,0-4.51-4.36-4.51-6.83,0-10.76,14.4-31.41,27.63-31.41,2.76,0,5.53,1.02,8,3.05.14.14-.15,1.16-.58.87-1.6-1.16-3.49-1.6-5.38-1.6Z"/><path class="cls-1" d="M558.78,183.92c-5.09,12.22-10.76,29.23-10.76,34.47,0,1.02.29,1.6,1.02,1.6,5.38,0,20.07-14.11,23.85-18.91.14-.29,1.02.29.73.73-3.34,5.23-21.38,23.85-28.36,23.85-1.6,0-1.6-1.45-1.6-2.33,0-3.05,1.16-9.02,3.93-17.45l8-21.81c-4.8.15-9.45.15-14.11-.14,1.45-2.18,1.02-4.07,2.33-4.07,4.51.87,8.43,1.46,12.8,1.75l6.25-17.01c.44.58.58,3.05,1.6,3.78.44.44,1.74,1.6.44,3.35-1.31,1.75-3.05,5.38-5.09,10.03,4.36.14,9.16,0,15.42-.44.44,0,.58.87.14.87-5.67.87-11.2,1.45-16.58,1.75Z"/><path class="cls-1" d="M593.98,201.95c-3.64,4.94-16.87,24-23.27,24-3.2,0-4.51-4.36-4.51-6.83,0-4.8,3.78-14.98,8.43-23.27,1.31-2.33,3.49-4.36,6.69-5.53.29,0,.44,1.16.14,1.45-1.31,1.6-2.47,3.05-3.2,4.51-4.65,8.29-6.98,18.03-6.98,22.83,0,1.75.44,2.76,1.45,2.76,5.24,0,24.58-27.2,26.18-28.94.29.58.44.73.87,1.16.44.44,1.89,1.02,1.02,3.05-5.67,6.11-11.2,22.83-9.16,22.83,5.09.58,19.2-13.96,23.12-18.91.15-.29,1.02.29.73.73-3.49,5.53-22.39,25.89-28.36,23.7-1.31-.44.87-10.91,7.42-23.41,0-.15-.44-.29-.58-.15Z"/><path class="cls-1" d="M660.59,189.59c-11.05,0-24.14,17.6-24.58,29.38,0,1.75.44,2.47,1.45,2.47,5.23,0,24-25.31,25.59-27.05.44,1.31,2.18,1.6,2.18,2.62,0,.29-.14.73-.58,1.16-4.94,5.23-9.89,17.31-9.89,20.5,0,.73.29.87.73.87,5.38,0,19.05-13.67,22.83-18.47.14-.29,1.02.29.73.73-3.35,5.23-20.51,23.41-27.34,23.41-1.31,0-1.45-.87-1.45-1.6,0-2.91,1.75-9.6,6.55-18.18,0-.14-.44-.29-.58-.14-3.64,4.94-14.4,20.21-20.8,20.21-3.2,0-4.51-4.36-4.51-6.83,0-10.76,14.4-31.41,27.63-31.41,2.76,0,5.53,1.02,8,3.05.14.14-.15,1.16-.58.87-1.6-1.16-3.49-1.6-5.38-1.6Z"/><path class="cls-1" d="M713.24,201.81c-8.58,11.49-22.11,23.7-30.69,23.7-5.53,0-7.71-4.8-7.71-11.92,0-24.87,36.94-92.93,54.24-92.93,3.49,0,5.09,3.78,5.09,7.13,0,27.63-45.37,67.19-53.08,74.02-.87,3.93-1.31,7.42-1.31,10.33,0,5.53,2.03,8.72,5.96,8.72,7.56,0,19.05-10.33,26.76-19.78.29-.29.87.44.73.73ZM681.68,199.34c9.74-8.72,47.56-45.67,47.56-70.24,0-3.35-1.6-4.8-3.35-4.8-1.16,0-2.33.58-3.49,1.45-14.83,11.49-34.47,49.3-40.72,73.59Z"/><path class="cls-1" d="M729.82,193.23c0-2.18-1.31-4.22-3.78-4.22-5.82,0-15.12,16.14-15.12,25.16,0,3.49.87,7.42,4.22,7.42,10.03,0,26.18-15.12,29.67-20.07.14-.29,1.02.29.73.73-3.49,5.53-20.65,23.27-32.14,23.27-5.82,0-7.13-5.09-7.13-9.6,0-9.45,9.6-28.94,20.94-28.94,4.36,0,6.25,1.75,6.25,4.07,0,1.75-1.6,4.94-3.2,6.83-.44.58-2.04-.15-1.75-.58.87-1.45,1.31-3.05,1.31-4.07Z"/><path class="cls-1" d="M766.62,189.59c-11.05,0-24.14,17.6-24.58,29.38,0,1.75.44,2.47,1.45,2.47,5.23,0,24-25.31,25.59-27.05.44,1.31,2.18,1.6,2.18,2.62,0,.29-.14.73-.58,1.16-4.94,5.23-9.89,17.31-9.89,20.5,0,.73.29.87.73.87,5.38,0,19.05-13.67,22.83-18.47.14-.29,1.02.29.73.73-3.35,5.23-20.5,23.41-27.34,23.41-1.31,0-1.45-.87-1.45-1.6,0-2.91,1.75-9.6,6.55-18.18,0-.14-.44-.29-.58-.14-3.64,4.94-14.4,20.21-20.8,20.21-3.2,0-4.51-4.36-4.51-6.83,0-10.76,14.4-31.41,27.63-31.41,2.76,0,5.53,1.02,8,3.05.14.14-.15,1.16-.58.87-1.6-1.16-3.49-1.6-5.38-1.6Z"/><path class="cls-1" d="M781.89,229c-.29-3.35-.58-6.69-.58-9.74,0-8.58.58-21.67,10.18-25.16.29,0,.44,1.16.15,1.45-2.33,2.62-3.64,4.36-4.36,9.31-.58,3.35-1.16,8.58-1.45,13.82,5.23-12.22,14.4-27.63,22.83-27.63,2.18,0,3.35,1.45,3.35,3.93,0,7.13-6.98,21.23-6.25,23.12.58,1.75,13.53-9.45,19.78-17.01.29-.29.87.44.73.73-4.36,6.54-21.52,23.56-25.16,23.56-.73,0-.87-.58-.87-1.45,0-4.94,7.71-21.67,7.71-27.63,0-.58-.14-2.03-1.6-2.03-8,0-21.81,28.65-23.7,34.9-.15,0-.58,0-.73-.14Z"/><path class="cls-1" d="M842.83,193.23c0-2.18-1.31-4.22-3.78-4.22-5.82,0-15.12,16.14-15.12,25.16,0,3.49.87,7.42,4.22,7.42,10.03,0,26.18-15.12,29.67-20.07.14-.29,1.02.29.73.73-3.49,5.53-20.65,23.27-32.14,23.27-5.82,0-7.13-5.09-7.13-9.6,0-9.45,9.6-28.94,20.94-28.94,4.36,0,6.25,1.75,6.25,4.07,0,1.75-1.6,4.94-3.2,6.83-.44.58-2.04-.15-1.75-.58.87-1.45,1.31-3.05,1.31-4.07Z"/><path class="cls-1" d="M891.4,201.81c-3.49,5.53-20.8,24.29-32.28,24.29-5.82,0-7.13-5.09-7.13-9.6,0-10.33,10.03-28.8,20.94-28.8,2.62,0,6.4,1.16,6.4,3.49,0,3.93-10.32,9.45-20.36,13.53-1.45,3.49-2.33,7.13-2.33,10.03,0,3.49.87,7.42,4.22,7.42,10.03,0,26.32-16.14,29.81-21.09.14-.29,1.02.29.73.73ZM871.77,189.59c-3.64,0-8.58,6.25-11.78,13.09,9.16-3.78,14.54-7.71,14.54-10.61,0-1.45-1.6-2.47-2.76-2.47Z"/></svg>